G04 (created by PCBNEW-RS274X (2012-01-19 BZR 3256)-stable) date 12/05/2013 23:19:03*
G01*
G70*
G90*
%MOIN*%
G04 Gerber Fmt 3.4, Leading zero omitted, Abs format*
%FSLAX34Y34*%
G04 APERTURE LIST*
%ADD10C,0.006000*%
%ADD11C,0.015000*%
%ADD12C,0.007000*%
%ADD13C,0.005000*%
%ADD14C,0.008000*%
%ADD15C,0.007500*%
%ADD16C,0.004500*%
G04 APERTURE END LIST*
G54D10*
G54D11*
X54975Y-40425D02*
X54300Y-40425D01*
X54975Y-34575D02*
X54975Y-40425D01*
X52775Y-34575D02*
X54975Y-34575D01*
X52175Y-35175D02*
X52775Y-34575D01*
X52075Y-35175D02*
X52175Y-35175D01*
X50550Y-35175D02*
X52075Y-35175D01*
X49675Y-34300D02*
X50550Y-35175D01*
X43325Y-34300D02*
X49675Y-34300D01*
X43280Y-34303D02*
X43319Y-34303D01*
X43280Y-40425D02*
X43280Y-34303D01*
X54303Y-40425D02*
X43280Y-40425D01*
X52927Y-40066D02*
X52150Y-37168D01*
X52150Y-37168D02*
X53116Y-36909D01*
X53116Y-36909D02*
X52599Y-34977D01*
X52599Y-34977D02*
X53564Y-34718D01*
X53564Y-34718D02*
X53823Y-35684D01*
X53823Y-35684D02*
X54859Y-39548D01*
X54859Y-39548D02*
X52927Y-40066D01*
G54D12*
X49533Y-34694D02*
X44631Y-34694D01*
X44612Y-34655D02*
X49553Y-34655D01*
X49533Y-34556D02*
X44631Y-34556D01*
X49553Y-34497D02*
X49553Y-34596D01*
X44612Y-34497D02*
X49553Y-34497D01*
X44612Y-34734D02*
X49553Y-34734D01*
X44612Y-34497D02*
X44612Y-34734D01*
X49553Y-39674D02*
X49395Y-39674D01*
X44179Y-40167D02*
X49395Y-40167D01*
X49395Y-40167D02*
X49395Y-39674D01*
X44001Y-35068D02*
X44001Y-39005D01*
X44001Y-39005D02*
X43667Y-39340D01*
X43667Y-39340D02*
X43667Y-39674D01*
X49553Y-38041D02*
X49553Y-39674D01*
X49553Y-35757D02*
X49553Y-37293D01*
X49553Y-34596D02*
X49553Y-35009D01*
X44612Y-34596D02*
X49553Y-34596D01*
G54D13*
X50825Y-37650D02*
X50825Y-36450D01*
X50825Y-36450D02*
X51125Y-36450D01*
X51125Y-36450D02*
X51125Y-37650D01*
X51125Y-37650D02*
X50825Y-37650D01*
X51125Y-39025D02*
X51125Y-38125D01*
X51125Y-38125D02*
X51625Y-38125D01*
X51625Y-38125D02*
X51625Y-39025D01*
X51625Y-39025D02*
X51125Y-39025D01*
G54D14*
X51693Y-38020D02*
X52080Y-37916D01*
X52119Y-38064D01*
X52111Y-38106D01*
X52097Y-38129D01*
X52065Y-38157D01*
X52010Y-38172D01*
X51969Y-38164D01*
X51945Y-38150D01*
X51917Y-38118D01*
X51878Y-37971D01*
X51851Y-38609D02*
X51792Y-38388D01*
X51821Y-38498D02*
X52208Y-38395D01*
X52143Y-38373D01*
X52096Y-38346D01*
X52068Y-38314D01*
G54D12*
X47073Y-37743D02*
X47300Y-37743D01*
X47327Y-37730D01*
X47340Y-37717D01*
X47353Y-37690D01*
X47353Y-37637D01*
X47340Y-37610D01*
X47327Y-37597D01*
X47300Y-37583D01*
X47073Y-37583D01*
X47353Y-37304D02*
X47353Y-37464D01*
X47353Y-37384D02*
X47073Y-37384D01*
X47113Y-37410D01*
X47140Y-37437D01*
X47153Y-37464D01*
X46389Y-38515D02*
X46404Y-38529D01*
X46420Y-38569D01*
X46420Y-38595D01*
X46404Y-38635D01*
X46374Y-38662D01*
X46343Y-38675D01*
X46282Y-38689D01*
X46237Y-38689D01*
X46176Y-38675D01*
X46145Y-38662D01*
X46115Y-38635D01*
X46100Y-38595D01*
X46100Y-38569D01*
X46115Y-38529D01*
X46130Y-38515D01*
X46100Y-38342D02*
X46100Y-38289D01*
X46115Y-38262D01*
X46145Y-38235D01*
X46206Y-38222D01*
X46313Y-38222D01*
X46374Y-38235D01*
X46404Y-38262D01*
X46420Y-38289D01*
X46420Y-38342D01*
X46404Y-38369D01*
X46374Y-38395D01*
X46313Y-38409D01*
X46206Y-38409D01*
X46145Y-38395D01*
X46115Y-38369D01*
X46100Y-38342D01*
X46420Y-38102D02*
X46100Y-38102D01*
X46420Y-37942D01*
X46100Y-37942D01*
X46420Y-37809D02*
X46100Y-37809D01*
X46420Y-37649D01*
X46100Y-37649D01*
X46450Y-37583D02*
X46450Y-37370D01*
X46420Y-37303D02*
X46100Y-37303D01*
X46328Y-37210D01*
X46100Y-37117D01*
X46420Y-37117D01*
X46420Y-36983D02*
X46100Y-36983D01*
X46389Y-36690D02*
X46404Y-36704D01*
X46420Y-36744D01*
X46420Y-36770D01*
X46404Y-36810D01*
X46374Y-36837D01*
X46343Y-36850D01*
X46282Y-36864D01*
X46237Y-36864D01*
X46176Y-36850D01*
X46145Y-36837D01*
X46115Y-36810D01*
X46100Y-36770D01*
X46100Y-36744D01*
X46115Y-36704D01*
X46130Y-36690D01*
X46420Y-36410D02*
X46267Y-36504D01*
X46420Y-36570D02*
X46100Y-36570D01*
X46100Y-36464D01*
X46115Y-36437D01*
X46130Y-36424D01*
X46160Y-36410D01*
X46206Y-36410D01*
X46237Y-36424D01*
X46252Y-36437D01*
X46267Y-36464D01*
X46267Y-36570D01*
X46100Y-36237D02*
X46100Y-36184D01*
X46115Y-36157D01*
X46145Y-36130D01*
X46206Y-36117D01*
X46313Y-36117D01*
X46374Y-36130D01*
X46404Y-36157D01*
X46420Y-36184D01*
X46420Y-36237D01*
X46404Y-36264D01*
X46374Y-36290D01*
X46313Y-36304D01*
X46206Y-36304D01*
X46145Y-36290D01*
X46115Y-36264D01*
X46100Y-36237D01*
X46404Y-36011D02*
X46420Y-35971D01*
X46420Y-35904D01*
X46404Y-35877D01*
X46389Y-35864D01*
X46359Y-35851D01*
X46328Y-35851D01*
X46298Y-35864D01*
X46282Y-35877D01*
X46267Y-35904D01*
X46252Y-35957D01*
X46237Y-35984D01*
X46221Y-35997D01*
X46191Y-36011D01*
X46160Y-36011D01*
X46130Y-35997D01*
X46115Y-35984D01*
X46100Y-35957D01*
X46100Y-35891D01*
X46115Y-35851D01*
X46420Y-35730D02*
X46100Y-35730D01*
X46100Y-35664D01*
X46115Y-35624D01*
X46145Y-35597D01*
X46176Y-35584D01*
X46237Y-35570D01*
X46282Y-35570D01*
X46343Y-35584D01*
X46374Y-35597D01*
X46404Y-35624D01*
X46420Y-35664D01*
X46420Y-35730D01*
G54D14*
X44495Y-38776D02*
X44511Y-38792D01*
X44528Y-38841D01*
X44528Y-38873D01*
X44511Y-38921D01*
X44479Y-38954D01*
X44447Y-38970D01*
X44382Y-38986D01*
X44333Y-38986D01*
X44269Y-38970D01*
X44236Y-38954D01*
X44204Y-38921D01*
X44188Y-38873D01*
X44188Y-38841D01*
X44204Y-38792D01*
X44220Y-38776D01*
X44528Y-38484D02*
X44350Y-38484D01*
X44317Y-38501D01*
X44301Y-38533D01*
X44301Y-38598D01*
X44317Y-38630D01*
X44511Y-38484D02*
X44528Y-38517D01*
X44528Y-38598D01*
X44511Y-38630D01*
X44479Y-38646D01*
X44447Y-38646D01*
X44414Y-38630D01*
X44398Y-38598D01*
X44398Y-38517D01*
X44382Y-38484D01*
X44528Y-38322D02*
X44301Y-38322D01*
X44366Y-38322D02*
X44333Y-38306D01*
X44317Y-38290D01*
X44301Y-38257D01*
X44301Y-38225D01*
X44528Y-37966D02*
X44188Y-37966D01*
X44511Y-37966D02*
X44528Y-37999D01*
X44528Y-38063D01*
X44511Y-38096D01*
X44495Y-38112D01*
X44463Y-38128D01*
X44366Y-38128D01*
X44333Y-38112D01*
X44317Y-38096D01*
X44301Y-38063D01*
X44301Y-37999D01*
X44317Y-37966D01*
X44350Y-37545D02*
X44350Y-37432D01*
X44528Y-37383D02*
X44528Y-37545D01*
X44188Y-37545D01*
X44188Y-37383D01*
X44301Y-37237D02*
X44528Y-37237D01*
X44333Y-37237D02*
X44317Y-37221D01*
X44301Y-37188D01*
X44301Y-37140D01*
X44317Y-37108D01*
X44350Y-37091D01*
X44528Y-37091D01*
X44301Y-36978D02*
X44301Y-36848D01*
X44188Y-36929D02*
X44479Y-36929D01*
X44511Y-36913D01*
X44528Y-36880D01*
X44528Y-36848D01*
X44528Y-36735D02*
X44301Y-36735D01*
X44366Y-36735D02*
X44333Y-36719D01*
X44317Y-36703D01*
X44301Y-36670D01*
X44301Y-36638D01*
X44528Y-36379D02*
X44350Y-36379D01*
X44317Y-36396D01*
X44301Y-36428D01*
X44301Y-36493D01*
X44317Y-36525D01*
X44511Y-36379D02*
X44528Y-36412D01*
X44528Y-36493D01*
X44511Y-36525D01*
X44479Y-36541D01*
X44447Y-36541D01*
X44414Y-36525D01*
X44398Y-36493D01*
X44398Y-36412D01*
X44382Y-36379D01*
X44301Y-36217D02*
X44528Y-36217D01*
X44333Y-36217D02*
X44317Y-36201D01*
X44301Y-36168D01*
X44301Y-36120D01*
X44317Y-36088D01*
X44350Y-36071D01*
X44528Y-36071D01*
X44511Y-35763D02*
X44528Y-35796D01*
X44528Y-35860D01*
X44511Y-35893D01*
X44495Y-35909D01*
X44463Y-35925D01*
X44366Y-35925D01*
X44333Y-35909D01*
X44317Y-35893D01*
X44301Y-35860D01*
X44301Y-35796D01*
X44317Y-35763D01*
X44511Y-35489D02*
X44528Y-35521D01*
X44528Y-35586D01*
X44511Y-35618D01*
X44479Y-35634D01*
X44350Y-35634D01*
X44317Y-35618D01*
X44301Y-35586D01*
X44301Y-35521D01*
X44317Y-35489D01*
X44350Y-35472D01*
X44382Y-35472D01*
X44414Y-35634D01*
G54D15*
X50275Y-37079D02*
X50261Y-37107D01*
X50232Y-37136D01*
X50189Y-37179D01*
X50175Y-37207D01*
X50175Y-37236D01*
X50246Y-37221D02*
X50232Y-37250D01*
X50204Y-37279D01*
X50146Y-37293D01*
X50046Y-37293D01*
X49989Y-37279D01*
X49961Y-37250D01*
X49946Y-37221D01*
X49946Y-37164D01*
X49961Y-37136D01*
X49989Y-37107D01*
X50046Y-37093D01*
X50146Y-37093D01*
X50204Y-37107D01*
X50232Y-37136D01*
X50246Y-37164D01*
X50246Y-37221D01*
X50246Y-36807D02*
X50246Y-36979D01*
X50246Y-36893D02*
X49946Y-36893D01*
X49989Y-36922D01*
X50018Y-36950D01*
X50032Y-36979D01*
X50825Y-37865D02*
X50811Y-37851D01*
X50796Y-37822D01*
X50796Y-37751D01*
X50811Y-37722D01*
X50825Y-37708D01*
X50854Y-37693D01*
X50882Y-37693D01*
X50925Y-37708D01*
X51096Y-37879D01*
X51096Y-37693D01*
X51096Y-37565D02*
X50796Y-37565D01*
X51096Y-37393D01*
X50796Y-37393D01*
X50796Y-37279D02*
X50796Y-37079D01*
X51096Y-37208D01*
X50796Y-36907D02*
X50796Y-36879D01*
X50811Y-36850D01*
X50825Y-36836D01*
X50854Y-36822D01*
X50911Y-36807D01*
X50982Y-36807D01*
X51039Y-36822D01*
X51068Y-36836D01*
X51082Y-36850D01*
X51096Y-36879D01*
X51096Y-36907D01*
X51082Y-36936D01*
X51068Y-36950D01*
X51039Y-36965D01*
X50982Y-36979D01*
X50911Y-36979D01*
X50854Y-36965D01*
X50825Y-36950D01*
X50811Y-36936D01*
X50796Y-36907D01*
X50796Y-36621D02*
X50796Y-36593D01*
X50811Y-36564D01*
X50825Y-36550D01*
X50854Y-36536D01*
X50911Y-36521D01*
X50982Y-36521D01*
X51039Y-36536D01*
X51068Y-36550D01*
X51082Y-36564D01*
X51096Y-36593D01*
X51096Y-36621D01*
X51082Y-36650D01*
X51068Y-36664D01*
X51039Y-36679D01*
X50982Y-36693D01*
X50911Y-36693D01*
X50854Y-36679D01*
X50825Y-36664D01*
X50811Y-36650D01*
X50796Y-36621D01*
X50825Y-36407D02*
X50811Y-36393D01*
X50796Y-36364D01*
X50796Y-36293D01*
X50811Y-36264D01*
X50825Y-36250D01*
X50854Y-36235D01*
X50882Y-36235D01*
X50925Y-36250D01*
X51096Y-36421D01*
X51096Y-36235D01*
G54D16*
X51456Y-38604D02*
X51361Y-38664D01*
X51456Y-38707D02*
X51256Y-38707D01*
X51256Y-38639D01*
X51265Y-38621D01*
X51275Y-38613D01*
X51294Y-38604D01*
X51323Y-38604D01*
X51342Y-38613D01*
X51351Y-38621D01*
X51361Y-38639D01*
X51361Y-38707D01*
X51256Y-38544D02*
X51256Y-38424D01*
X51456Y-38501D01*
M02*
